<?xml version="1.0" encoding="UTF-8" standalone="no"?>
<svg
   xmlns:dc="http://purl.org/dc/elements/1.1/"
   xmlns:cc="http://creativecommons.org/ns#"
   xmlns:rdf="http://www.w3.org/1999/02/22-rdf-syntax-ns#"
   xmlns:svg="http://www.w3.org/2000/svg"
   xmlns="http://www.w3.org/2000/svg"
   xmlns:xlink="http://www.w3.org/1999/xlink"
   xmlns:sodipodi="http://sodipodi.sourceforge.net/DTD/sodipodi-0.dtd"
   xmlns:inkscape="http://www.inkscape.org/namespaces/inkscape"
   id="svg2474"
   viewBox="0 0 48 48"
   version="1.1"
   inkscape:version="0.48.4 r9939"
   width="100%"
   height="100%"
   sodipodi:docname="carbon-root.svg">
  <metadata
     id="metadata24">
    <rdf:RDF>
      <cc:Work
         rdf:about="">
        <dc:format>image/svg+xml</dc:format>
        <dc:type
           rdf:resource="http://purl.org/dc/dcmitype/StillImage" />
      </cc:Work>
    </rdf:RDF>
  </metadata>
  <sodipodi:namedview
     pagecolor="#ffffff"
     bordercolor="#666666"
     borderopacity="1"
     objecttolerance="10"
     gridtolerance="10"
     guidetolerance="10"
     inkscape:pageopacity="0"
     inkscape:pageshadow="2"
     inkscape:window-width="640"
     inkscape:window-height="480"
     id="namedview26"
     showgrid="false"
     inkscape:zoom="4.9166667"
     inkscape:cx="24"
     inkscape:cy="24"
     inkscape:window-x="253"
     inkscape:window-y="475"
     inkscape:window-maximized="0"
     inkscape:current-layer="svg2474" />
  <defs
     id="defs2476">
    <linearGradient
       id="linearGradient4873">
      <stop
         id="stop4875"
         stop-color="#fff"
         offset="0" />
      <stop
         id="stop4877"
         stop-color="#fff"
         stop-opacity="0"
         offset="1" />
    </linearGradient>
    <linearGradient
       id="linearGradient2861"
       x1="15.373"
       gradientUnits="userSpaceOnUse"
       y1="5.0472"
       gradientTransform="matrix(.95437 0 0 .95437 .49330 2.8946)"
       x2="15.373"
       y2="22.6">
      <stop
         id="stop3535"
         stop-color="#93b9dd"
         offset="0" />
      <stop
         id="stop3545"
         stop-color="#6396cd"
         offset="1" />
    </linearGradient>
    <radialGradient
       id="radialGradient2864"
       gradientUnits="userSpaceOnUse"
       cy="4.625"
       cx="62.625"
       gradientTransform="matrix(2.1499 0 0 .87466 -110.64 34.661)"
       r="10.625">
      <stop
         id="stop8840"
         offset="0" />
      <stop
         id="stop8842"
         stop-opacity="0"
         offset="1" />
    </radialGradient>
    <linearGradient
       id="linearGradient2850"
       x1="35.233"
       xlink:href="#linearGradient4873"
       gradientUnits="userSpaceOnUse"
       y1="10.677"
       gradientTransform="matrix(.95437 0 0 .95437 .49330 2.8946)"
       x2="10.512"
       y2="19.948" />
    <linearGradient
       id="linearGradient3684"
       x1="35.233"
       xlink:href="#linearGradient4873"
       gradientUnits="userSpaceOnUse"
       y1="10.677"
       gradientTransform="matrix(-.95437 0 0 -.95437 46.382 44.602)"
       x2="10.512"
       y2="19.948" />
    <linearGradient
       id="linearGradient3687"
       x1="15.373"
       gradientUnits="userSpaceOnUse"
       y1="5.0472"
       gradientTransform="matrix(-.95437 0 0 -.95437 46.382 44.602)"
       x2="15.373"
       y2="22.6">
      <stop
         id="stop3691"
         stop-color="#d75f66"
         offset="0" />
      <stop
         id="stop3693"
         stop-color="#8c422a"
         offset="1" />
    </linearGradient>
    <linearGradient
       inkscape:collect="always"
       xlink:href="#linearGradient2861"
       id="linearGradient3023"
       gradientUnits="userSpaceOnUse"
       gradientTransform="matrix(0.95437,0,0,0.95437,0.4933,2.8946)"
       x1="15.373"
       y1="5.0472"
       x2="15.373"
       y2="22.6" />
    <linearGradient
       inkscape:collect="always"
       xlink:href="#linearGradient4873"
       id="linearGradient3025"
       gradientUnits="userSpaceOnUse"
       gradientTransform="matrix(0.95437,0,0,0.95437,0.4933,2.8946)"
       x1="35.233"
       y1="10.677"
       x2="10.512"
       y2="19.948" />
    <linearGradient
       inkscape:collect="always"
       xlink:href="#linearGradient3687"
       id="linearGradient3027"
       gradientUnits="userSpaceOnUse"
       gradientTransform="matrix(-0.95437,0,0,-0.95437,46.382,44.602)"
       x1="15.373"
       y1="5.0472"
       x2="15.373"
       y2="22.6" />
    <linearGradient
       inkscape:collect="always"
       xlink:href="#linearGradient4873"
       id="linearGradient3029"
       gradientUnits="userSpaceOnUse"
       gradientTransform="matrix(-0.95437,0,0,-0.95437,46.382,44.602)"
       x1="35.233"
       y1="10.677"
       x2="10.512"
       y2="19.948" />
  </defs>
  <g
     id="g3016"
     transform="matrix(1.1183998,0,0,1.1183998,-2.1155176,-2.5066553)">
    <g
       id="g3669">
      <path
         d="M 23.531,4.5 C 13.683,4.8989 5.84,12.515 4.625,22.156 H 15.25 c 1.058,-3.926 4.851,-6.983 9.031,-6.937 2.364,0.026 4.646,0.799 6.344,2.437 l -4.406,4.063 H 42.25 V 5.906 l -4.219,4.219 C 34.323,6.481 30.035,4.5602 24.562,4.5 24.215,4.4962 23.875,4.4861 23.531,4.5 z"
         id="path3372"
         style="fill:url(#linearGradient3023);stroke:#387ab8;stroke-linejoin:round"
         inkscape:connector-curvature="0" />
      <path
         d="m 14.219,21.75 c 1.2893,-4.2881 5.5889,-7.7538 10.125,-7.6875 2.6731,0.03908 5.955,1.1919 7.9688,3.4688 l -3.2188,3.0625 12.062,0.03125 V 8.56305 L 38,11.78125 c -3.542,-3.9506 -8.053,-5.9756 -13.594,-6.031 -9.609,-0.0962 -17.172,6.815 -18.562,16"
         id="path3370"
         style="opacity:0.4;fill:none;stroke:url(#linearGradient3025);stroke-width:1.19299996"
         inkscape:connector-curvature="0" />
    </g>
    <path
       d="M 23.344,42.997 C 33.192,42.598 41.035,34.982 42.25,25.34 H 31.625 c -1.0577,3.9266 -4.8512,6.9835 -9.0312,6.9375 C 20.2299,32.25148 17.9478,31.47779 16.25,29.84 l 4.4062,-4.0625 H 4.6252 v 15.812 L 8.844,37.3707 c 3.7082,3.644 7.9959,5.5648 13.469,5.625 0.34792,0.0038 0.68793,0.01391 1.0312,0 z"
       id="path3675"
       style="fill:url(#linearGradient3027);stroke:#7d2c0c;stroke-linejoin:round"
       inkscape:connector-curvature="0" />
    <path
       d="m 32.656,25.747 c -1.2893,4.2881 -5.5889,7.7538 -10.125,7.6875 -2.6731,-0.03908 -5.955,-1.1919 -7.9688,-3.4688 L 17.781,26.9032 5.719,26.87195 v 12.062 l 3.1562,-3.2188 c 3.542,3.9509 8.0533,5.9758 13.594,6.0312 9.6095,0.09616 17.172,-6.8151 18.562,-16"
       id="path3677"
       style="opacity:0.4;fill:none;stroke:url(#linearGradient3029);stroke-width:1.19299996"
       inkscape:connector-curvature="0" />
  </g>
</svg>
